<svg version="1.1" id="Outline" xmlns="http://www.w3.org/2000/svg" x="0" y="0" viewBox="0 0 24 24" xml:space="preserve"><style>.st0{fill:#abb2bc}</style><path class="st0" d="M7 22H5c-1.7 0-3-1.3-3-3V5c0-1.7 1.3-3 3-3h2c.6 0 1-.4 1-1s-.4-1-1-1H5C2.2 0 0 2.2 0 5v14c0 2.8 2.2 5 5 5h2c.6 0 1-.4 1-1s-.4-1-1-1z"/><path class="st0" d="M18.5 18.7l4.6-4.6c1.2-1.2 1.2-3.1 0-4.2l-4.6-4.6c-.4-.4-1-.4-1.4 0-.4.4-.4 1 0 1.4l4.3 4.3H6c-.6 0-1 .4-1 1s.4 1 1 1h15.4l-4.3 4.3c-.4.4-.4 1 0 1.4.4.4 1 .4 1.4 0z"/></svg>