<svg version="1.1" id="Outline" xmlns="http://www.w3.org/2000/svg" x="0" y="0" viewBox="0 0 24 24" xml:space="preserve"><style>.st0{fill:#abb2bc}</style><path class="st0" d="M19 8.4V7c0-3.9-3.1-7-7-7S5 3.1 5 7v1.4C3.2 9.2 2 11 2 13v6c0 2.8 2.2 5 5 5h10c2.8 0 5-2.2 5-5v-6c0-2-1.2-3.8-3-4.6zM7 7c0-2.8 2.2-5 5-5s5 2.2 5 5v1H7V7zm13 12c0 1.7-1.3 3-3 3H7c-1.7 0-3-1.3-3-3v-6c0-1.7 1.3-3 3-3h10c1.7 0 3 1.3 3 3v6z"/><path class="st0" d="M12 14c-.6 0-1 .4-1 1v2c0 .6.4 1 1 1s1-.4 1-1v-2c0-.6-.4-1-1-1z"/></svg>