<svg xmlns="http://www.w3.org/2000/svg" width="167.293" height="27"><g fill="#FFF"><path d="M166.924 9.729l-.73 3.151 1.1 3.98h-1.922c-.233-.71-.445-1.579-.634-2.6-.054.454-.125.937-.221 1.437l-.197 1.163h-2.021l.758-3.98-.758-3.151h2.009c.039.196.111.522.218.98.088.35.155.673.213.967l.442-1.947h1.743zM92.718 1.43h-1.526v5.714h-2.077V0h3.603zm.559-1.419h2.093c.565 0 1.002.039 1.304.116.304.081.537.197.683.346.158.154.261.33.313.54.056.218.086.546.086.994v.622c0 .458-.057.784-.162.991-.104.21-.3.369-.579.483-.279.113-.646.167-1.1.167h-.561v2.875h-2.077V.011zm2.077 1.222v1.809c.057.005.111.005.154.005.19 0 .324-.037.396-.125.071-.083.111-.258.111-.523v-.584c0-.244-.044-.406-.128-.479-.084-.07-.265-.103-.533-.103m7.108-1.229l-.565 4.729c-.086.74-.183 1.269-.288 1.568a1.04 1.04 0 01-.591.644c-.292.132-.771.198-1.442.198H98.36v-.922h.122c.272 0 .445-.019.502-.062a.187.187 0 00.101-.177c0-.011-.039-.211-.117-.607L97.874.003h1.806l.662 4.445.317-4.445h1.803zm5.199 7.14h-2.081V1.43h-.618v5.714h-2.08V.004h4.779zm5.609 0h-2.078V1.43h-.619v5.714h-2.086V.004h4.783zm4.422-7.133l1.188 7.133h-2.12l-.114-1.284h-.743l-.124 1.284h-2.15L114.69.011h3.002zm-1.102 4.585a69.744 69.744 0 01-.315-2.997c-.212 1.371-.349 2.362-.399 2.997h.714zM93.752 16.859h-1.736v-3.245l-1.084 3.245h-1.817V9.726h1.732v3.217l1.169-3.217h1.736zm5.602-7.13v7.13H97.28v-2.996h-.619v2.996h-2.08v-7.13h2.08v2.547h.619V9.729zm6.776 8.356h-1.438v-1.226h-3.351v1.226h-1.434v-2.713h.425c.224-.586.407-1.351.551-2.313.146-.95.215-1.994.215-3.12v-.213h4.611v5.632h.421v2.727zm-2.507-2.728v-4.226h-.616v.054c0 1.364-.163 2.756-.494 4.172h1.11zm7.27-5.631l-.566 4.722c-.086.749-.187 1.271-.289 1.574a1.042 1.042 0 01-.589.644c-.291.126-.775.194-1.445.194h-1.214v-.923h.12c.278 0 .439-.021.505-.056.07-.043.1-.101.1-.185 0-.008-.038-.203-.119-.604l-1.09-5.367h1.803l.661 4.441.317-4.441h1.806zm5.262 3.107h-2.077v-1.24c0-.361-.02-.583-.064-.674-.045-.092-.14-.135-.29-.135-.174 0-.279.053-.327.159-.049.105-.072.348-.072.709v3.31c0 .352.023.576.072.678.048.112.146.16.308.16.155 0 .258-.048.308-.16.047-.102.066-.35.066-.743V14h2.077v.277c0 .736-.055 1.262-.172 1.568-.12.31-.376.578-.773.815-.403.232-.891.343-1.479.343-.607 0-1.111-.091-1.506-.292-.396-.195-.657-.471-.784-.817-.13-.347-.196-.868-.196-1.569v-2.089c0-.507.022-.895.063-1.149.036-.261.157-.507.353-.748.191-.235.466-.424.813-.56a3.227 3.227 0 011.198-.207c.612 0 1.116.104 1.516.319.393.21.656.475.783.793.126.31.184.801.184 1.469v.68zm4.934-3.104v1.425h-1.236v5.705h-2.074v-5.705h-1.231V9.729zm.47-.003h2.098c.566 0 1.001.04 1.303.121.304.078.532.194.685.34.151.154.262.333.314.545.054.213.083.544.083.992v.62c0 .456-.055.789-.165.993-.101.208-.295.373-.574.486-.286.11-.653.163-1.104.163h-.561v2.874h-2.079V9.726zm2.079 1.218v1.819h.155c.193 0 .32-.038.394-.124.076-.079.113-.254.113-.523v-.583c0-.249-.041-.406-.128-.483-.089-.063-.263-.106-.534-.106m7.634 5.915h-1.738v-3.245l-1.079 3.245h-1.819V9.726h1.737v3.217l1.161-3.217h1.738zm4.422-7.133l1.183 7.134h-2.12l-.112-1.284h-.742l-.125 1.284h-2.145l1.056-7.134h3.005zm-1.101 4.59a77.798 77.798 0 01-.319-2.997c-.213 1.36-.347 2.362-.396 2.997h.715z"/><path d="M142.304 16.859h-2.078V11.15h-.609v4.04c0 .527-.076.915-.23 1.147-.152.229-.384.372-.702.434-.308.063-.804.088-1.49.088h-.33V15.63c.257 0 .433-.028.53-.085.091-.053.142-.25.142-.577V9.726h4.769v7.133zm5.674-1.669c0 .527-.081.915-.234 1.147-.154.229-.388.372-.704.434-.314.063-.809.088-1.505.088h-2.398V9.726h2.083v2.443h.315c.646 0 1.129.034 1.46.1.331.069.573.215.74.441.159.236.243.6.243 1.094v1.386zm-2.082-.221v-1.025c0-.3-.038-.481-.104-.549-.068-.062-.262-.104-.574-.108v2.344c.262 0 .443-.035.536-.096.096-.056.142-.247.142-.566m7.587-5.24v7.13h-2.073v-2.996h-.619v2.996h-2.08v-7.13h2.08v2.547h.619V9.729zm5.679 5.461c0 .527-.076.915-.233 1.147-.152.229-.386.372-.702.434-.313.063-.814.088-1.503.088h-2.401V9.726h2.081v2.443h.32c.645 0 1.129.034 1.459.1.328.069.572.22.733.441.165.236.246.6.246 1.094v1.386zm-2.078-.221v-1.028c0-.297-.039-.478-.108-.542-.067-.065-.258-.108-.572-.112v2.344c.265 0 .441-.035.534-.096.095-.056.146-.243.146-.566m4.868 1.89h-2.083V9.726h2.083v7.133zm-68.3 2.787v1.424h-1.235v5.707h-2.073V21.07h-1.229v-1.424zm.474 0h3.464v1.424h-1.387v1.354h1.3v1.359h-1.3v1.566h1.526v1.428h-3.603zm8.409 0l-.728 3.15 1.1 3.981h-1.929a21.233 21.233 0 01-.625-2.604c-.054.457-.128.931-.226 1.438l-.194 1.166h-2.021l.755-3.981-.755-3.15h2.009c.036.196.108.522.213.98.091.35.161.671.219.968l.44-1.948h1.742zm5.444 0v7.131h-2.083v-2.994h-.622v2.994h-2.075v-7.131h2.075v2.547h.622v-2.547zm5.577 4.175c0 .715-.016 1.223-.056 1.522a1.607 1.607 0 01-.352.815 1.855 1.855 0 01-.81.567c-.336.134-.732.197-1.182.197-.43 0-.816-.059-1.152-.189a1.816 1.816 0 01-.823-.558 1.611 1.611 0 01-.373-.813c-.037-.297-.056-.808-.056-1.542v-1.221c0-.719.019-1.227.056-1.522a1.65 1.65 0 01.354-.822c.196-.242.469-.432.807-.565a3.362 3.362 0 011.188-.194c.428 0 .811.058 1.153.188.336.121.612.308.818.561.206.247.332.52.371.814.036.293.056.803.056 1.542v1.22zm-2.073-2.344c0-.332-.022-.541-.065-.633-.042-.101-.126-.142-.253-.142-.112 0-.194.038-.251.111-.058.073-.084.292-.084.663v3.333c0 .413.021.671.053.765.044.097.128.146.267.146.143 0 .23-.06.272-.17.039-.107.062-.373.062-.8v-3.273zm7.924 5.3h-2.083v-5.71h-.61v4.042c0 .531-.074.914-.231 1.145-.147.232-.382.376-.698.435-.309.057-.807.089-1.491.089h-.324v-1.229c.255 0 .43-.027.52-.086.1-.053.146-.242.146-.571v-5.249h4.773v7.134zm5.571-2.956c0 .715-.015 1.223-.051 1.522a1.64 1.64 0 01-.357.815 1.82 1.82 0 01-.808.567c-.335.134-.731.197-1.181.197-.431 0-.814-.059-1.154-.189a1.85 1.85 0 01-.823-.558 1.618 1.618 0 01-.372-.813c-.037-.297-.056-.808-.056-1.542v-1.221c0-.719.019-1.227.056-1.522.04-.304.156-.568.358-.822a1.91 1.91 0 01.803-.565 3.358 3.358 0 011.188-.194c.427 0 .811.058 1.15.188.338.121.614.308.82.561.211.247.332.52.371.814.04.293.055.803.055 1.542v1.22zm-2.074-2.344c0-.332-.023-.541-.063-.633-.042-.101-.125-.142-.253-.142a.295.295 0 00-.247.111c-.06.073-.087.292-.087.663v3.333c0 .413.019.671.057.765.037.097.123.146.266.146.14 0 .231-.06.27-.17.035-.107.059-.373.059-.8v-3.273zm6.458-.41h-1.525v5.71h-2.081v-7.135h3.606zm5.199 5.71h-1.738v-3.245l-1.079 3.245h-1.821v-7.135h1.736v3.219l1.164-3.219h1.738zm5.463 0h-1.735v-3.245l-1.079 3.245h-1.82v-7.136h1.735v3.22l1.164-3.22h1.735v7.136zm-1.763-8.692h.838c-.016.399-.15.728-.394.969-.241.247-.575.369-1.007.369-.436 0-.772-.127-1.013-.373-.234-.24-.362-.565-.387-.965h.844c.037.403.223.605.556.605.334 0 .524-.202.563-.605M26.053 5.226c-1.479-1.864-2.865-2.522-4.82-2.522-8.545 0-8.779 5.542-8.779 8.83v4.119c0 2.663 0 8.319 6.013 8.354V7.883h12.169V24.7c-2.244 1.208-5.967 2.3-11.74 2.3C9.83 27 0 22.985 0 13.102 0 4.234 8.158 0 18.895 0c5.059 0 8.113 1.172 10.879 3.289-.811.91-2.532 1.567-3.721 1.937M37.521.37H49.69v26.266H37.521zm46.437 0v3.026h-9.063v23.24H62.724V3.396h-9.069V.37z"/></g></svg>